<svg width="32" height="32" viewBox="0 0 32 32" fill="none" xmlns="http://www.w3.org/2000/svg">
<path d="M16 6.66667C14.154 6.66667 12.3495 7.21406 10.8147 8.23962C9.27981 9.26518 8.08353 10.7228 7.37711 12.4283C6.67069 14.1337 6.48586 16.0104 6.84599 17.8208C7.20612 19.6313 8.09503 21.2944 9.40032 22.5997C10.7056 23.905 12.3687 24.7939 14.1791 25.154C15.9896 25.5141 17.8663 25.3293 19.5717 24.6229C21.2771 23.9165 22.7348 22.7202 23.7604 21.1853C24.7859 19.6505 25.3333 17.846 25.3333 16C25.3333 13.5246 24.35 11.1507 22.5996 9.40034C20.8493 7.65 18.4753 6.66667 16 6.66667ZM16 22.6667C14.6814 22.6667 13.3925 22.2757 12.2962 21.5431C11.1999 20.8106 10.3454 19.7694 9.84079 18.5512C9.33621 17.333 9.20418 15.9926 9.46142 14.6994C9.71865 13.4062 10.3536 12.2183 11.2859 11.286C12.2183 10.3536 13.4062 9.71867 14.6994 9.46143C15.9926 9.2042 17.333 9.33622 18.5512 9.84081C19.7694 10.3454 20.8106 11.1999 21.5431 12.2962C22.2757 13.3925 22.6667 14.6815 22.6667 16C22.6667 17.7681 21.9643 19.4638 20.714 20.714C19.4638 21.9643 17.7681 22.6667 16 22.6667ZM16 12C15.2089 12 14.4355 12.2346 13.7777 12.6741C13.1199 13.1136 12.6072 13.7384 12.3045 14.4693C12.0017 15.2002 11.9225 16.0044 12.0768 16.7804C12.2312 17.5563 12.6121 18.269 13.1716 18.8284C13.731 19.3878 14.4437 19.7688 15.2196 19.9231C15.9955 20.0775 16.7998 19.9983 17.5307 19.6955C18.2616 19.3928 18.8863 18.8801 19.3259 18.2223C19.7654 17.5645 20 16.7911 20 16C20 14.9391 19.5786 13.9217 18.8284 13.1716C18.0783 12.4214 17.0609 12 16 12ZM16 17.3333C15.7363 17.3333 15.4785 17.2551 15.2592 17.1086C15.04 16.9621 14.8691 16.7539 14.7681 16.5102C14.6672 16.2666 14.6408 15.9985 14.6923 15.7399C14.7437 15.4812 14.8707 15.2437 15.0572 15.0572C15.2436 14.8707 15.4812 14.7437 15.7399 14.6923C15.9985 14.6408 16.2666 14.6672 16.5102 14.7682C16.7539 14.8691 16.9621 15.04 17.1086 15.2592C17.2551 15.4785 17.3333 15.7363 17.3333 16C17.3333 16.3536 17.1928 16.6928 16.9428 16.9428C16.6927 17.1929 16.3536 17.3333 16 17.3333ZM16 1.33334C13.0992 1.33334 10.2635 2.19352 7.85162 3.80511C5.4397 5.41671 3.55984 7.70733 2.44975 10.3873C1.33967 13.0673 1.04922 16.0163 1.61514 18.8613C2.18105 21.7064 3.57792 24.3197 5.62909 26.3709C7.68026 28.4221 10.2936 29.8189 13.1387 30.3848C15.9837 30.9508 18.9327 30.6603 21.6127 29.5502C24.2927 28.4401 26.5833 26.5603 28.1949 24.1484C29.8065 21.7364 30.6667 18.9008 30.6667 16C30.6667 12.1102 29.1214 8.37964 26.3709 5.6291C23.6204 2.87857 19.8898 1.33334 16 1.33334ZM16 28C13.6266 28 11.3065 27.2962 9.33314 25.9776C7.35975 24.6591 5.82168 22.7849 4.91343 20.5922C4.00518 18.3995 3.76754 15.9867 4.23056 13.6589C4.69359 11.3311 5.83647 9.19295 7.5147 7.51472C9.19293 5.83649 11.3311 4.6936 13.6589 4.23058C15.9867 3.76756 18.3995 4.0052 20.5922 4.91345C22.7849 5.8217 24.659 7.35977 25.9776 9.33316C27.2962 11.3065 28 13.6266 28 16C28 19.1826 26.7357 22.2348 24.4853 24.4853C22.2348 26.7357 19.1826 28 16 28Z" fill="#EDCB50"/>
</svg>
