<svg width="24" height="24" viewBox="0 0 24 24" fill="none" xmlns="http://www.w3.org/2000/svg">
<path d="M23.3665 8.57341L15.9853 7.4467L12.678 0.394377C12.606 0.273666 12.506 0.174152 12.3874 0.10517C12.2688 0.0361884 12.1355 0 12 0C11.8645 0 11.7312 0.0361884 11.6126 0.10517C11.494 0.174152 11.394 0.273666 11.322 0.394377L8.0147 7.45633L0.636549 8.57341C0.502889 8.58719 0.375749 8.6408 0.270074 8.72792C0.1644 8.81504 0.084581 8.93206 0.0399998 9.06523C-0.0045814 9.19839 -0.0120724 9.34216 0.0184071 9.47965C0.0488867 9.61713 0.11607 9.74261 0.212061 9.84135L5.5716 15.3465L4.30425 23.121C4.28803 23.2643 4.3098 23.4096 4.36715 23.5407C4.4245 23.6718 4.51521 23.7838 4.62926 23.8641C4.74331 23.9445 4.87627 23.9902 5.01346 23.9961C5.15065 24.0021 5.28673 23.9681 5.40669 23.8978L12 20.2513L18.5903 23.9011C18.7102 23.9713 18.8463 24.0053 18.9835 23.9993C19.1207 23.9934 19.2536 23.9477 19.3677 23.8673C19.4817 23.787 19.5724 23.6751 19.6298 23.5439C19.6871 23.4128 19.7089 23.2676 19.6927 23.1242L18.4284 15.3465L23.7879 9.84135C23.8839 9.74261 23.9511 9.61713 23.9816 9.47965C24.0121 9.34216 24.0046 9.19839 23.96 9.06523C23.9154 8.93206 23.8356 8.81504 23.7299 8.72792C23.6242 8.6408 23.4971 8.58719 23.3634 8.57341H23.3665Z" fill="#EDCB50"/>
</svg>
