<svg width="44" height="44" viewBox="0 0 44 44" fill="none" xmlns="http://www.w3.org/2000/svg">
<path d="M38.5 7.33335H33V5.50002C33 5.01379 32.8069 4.54747 32.463 4.20366C32.1192 3.85984 31.6529 3.66669 31.1667 3.66669H12.8334C12.3471 3.66669 11.8808 3.85984 11.537 4.20366C11.1932 4.54747 11 5.01379 11 5.50002V7.33335H5.50002C5.01379 7.33335 4.54747 7.52651 4.20366 7.87032C3.85984 8.21414 3.66669 8.68046 3.66669 9.16669V14.6667C3.66669 16.6116 4.4393 18.4769 5.81457 19.8521C7.18984 21.2274 9.0551 22 11 22H13.8234C15.4817 23.8501 17.7175 25.0843 20.1667 25.5017V29.3334H18.3334C16.8747 29.3334 15.4757 29.9128 14.4443 30.9443C13.4128 31.9757 12.8334 33.3747 12.8334 34.8334V38.5C12.8334 38.9862 13.0265 39.4526 13.3703 39.7964C13.7141 40.1402 14.1805 40.3334 14.6667 40.3334H29.3334C29.8196 40.3334 30.2859 40.1402 30.6297 39.7964C30.9735 39.4526 31.1667 38.9862 31.1667 38.5V34.8334C31.1667 33.3747 30.5872 31.9757 29.5558 30.9443C28.5243 29.9128 27.1254 29.3334 25.6667 29.3334H23.8334V25.5017C26.2826 25.0843 28.5184 23.8501 30.1767 22H33C34.9449 22 36.8102 21.2274 38.1855 19.8521C39.5607 18.4769 40.3334 16.6116 40.3334 14.6667V9.16669C40.3334 8.68046 40.1402 8.21414 39.7964 7.87032C39.4526 7.52651 38.9862 7.33335 38.5 7.33335ZM11 18.3334C10.0276 18.3334 9.09493 17.947 8.4073 17.2594C7.71966 16.5718 7.33335 15.6391 7.33335 14.6667V11H11V14.6667C11.0041 15.9165 11.221 17.1565 11.6417 18.3334H11ZM25.6667 33C26.1529 33 26.6192 33.1932 26.963 33.537C27.3069 33.8808 27.5 34.3471 27.5 34.8334V36.6667H16.5V34.8334C16.5 34.3471 16.6932 33.8808 17.037 33.537C17.3808 33.1932 17.8471 33 18.3334 33H25.6667ZM29.3334 14.6667C29.3334 16.6116 28.5607 18.4769 27.1855 19.8521C25.8102 21.2274 23.9449 22 22 22C20.0551 22 18.1898 21.2274 16.8146 19.8521C15.4393 18.4769 14.6667 16.6116 14.6667 14.6667V7.33335H29.3334V14.6667ZM36.6667 14.6667C36.6667 15.6391 36.2804 16.5718 35.5927 17.2594C34.9051 17.947 33.9725 18.3334 33 18.3334H32.3584C32.779 17.1565 32.996 15.9165 33 14.6667V11H36.6667V14.6667Z" fill="white"/>
</svg>
