<svg width="24" height="24" viewBox="0 0 24 24" fill="none" xmlns="http://www.w3.org/2000/svg">
<path d="M15.4 11.16L10.5 8.00005C10.348 7.91228 10.1755 7.86608 10 7.86608C9.82446 7.86608 9.65202 7.91228 9.5 8.00005C9.35174 8.08557 9.22791 8.20771 9.14036 8.35479C9.05282 8.50187 9.00449 8.66895 9 8.84005V15.16C9.0013 15.3382 9.05019 15.5129 9.14161 15.6658C9.23303 15.8188 9.36367 15.9445 9.52 16.0301C9.66543 16.1157 9.83123 16.1606 10 16.16C10.1771 16.1479 10.3487 16.093 10.5 16L15.4 12.84C15.5403 12.7494 15.6557 12.625 15.7356 12.4783C15.8155 12.3315 15.8574 12.1671 15.8574 12C15.8574 11.833 15.8155 11.6686 15.7356 11.5218C15.6557 11.3751 15.5403 11.2507 15.4 11.16ZM11 13.32V10.68L13 12L11 13.32ZM19.38 4.51005L17.83 4.31005C13.991 3.84001 10.109 3.84001 6.27 4.31005L4.72 4.51005C3.97471 4.59116 3.2854 4.94392 2.78368 5.50098C2.28195 6.05803 2.00297 6.78036 2 7.53005V16.47C2.00636 17.2086 2.28051 17.9198 2.77155 18.4715C3.26259 19.0233 3.93715 19.3781 4.67 19.47L6.22 19.66C8.13776 19.8931 10.0681 20.0066 12 20C13.9323 20 15.8627 19.8798 17.78 19.64L19.33 19.4501C20.0628 19.3581 20.7374 19.0033 21.2285 18.4515C21.7195 17.8998 21.9936 17.1886 22 16.4501V7.53005C21.9985 6.78803 21.7265 6.072 21.235 5.51609C20.7435 4.96017 20.0662 4.6025 19.33 4.51005H19.38ZM20.05 16.51C20.0508 16.762 19.9565 17.0049 19.7859 17.1903C19.6154 17.3757 19.3811 17.4899 19.13 17.51L17.58 17.7001C13.9077 18.1601 10.1923 18.1601 6.52 17.7001L4.97 17.51C4.71889 17.4899 4.48463 17.3757 4.31406 17.1903C4.1435 17.0049 4.04919 16.762 4.05 16.51V7.53005C4.06192 7.282 4.16055 7.04601 4.32869 6.86325C4.49683 6.68049 4.7238 6.56256 4.97 6.53005L6.47 6.30005C10.1427 5.8467 13.8573 5.8467 17.53 6.30005L19.08 6.49005C19.3262 6.52256 19.5532 6.64049 19.7213 6.82325C19.8894 7.00601 19.9881 7.242 20 7.49005L20.05 16.51Z" fill="#7F848D"/>
</svg>
